<svg width="70" height="55" viewBox="0 0 70 55" fill="none" xmlns="http://www.w3.org/2000/svg">
<mask id="path-1-outside-1_193_1245" maskUnits="userSpaceOnUse" x="-0.216797" y="-0.0283203" width="70" height="55" fill="black">
<rect fill="white" x="-0.216797" y="-0.0283203" width="70" height="55"/>
<path d="M20.6377 1.2119C20.2113 1.32819 19.604 1.50907 19.281 1.62535C14.255 3.4988 12.1748 9.53261 14.3842 15.8507C15.4824 18.9903 17.5755 21.9491 21.6842 26.2128C28.1056 32.8668 29.1005 34.2363 29.1522 36.5103C29.178 37.5439 29.3331 37.8669 29.6948 37.5698C29.8757 37.4277 29.9015 37.2209 29.8499 36.2907C29.7077 33.797 28.8679 32.66 21.7488 25.2438C17.1362 20.4503 15.0948 17.091 14.423 13.2537C14.1646 11.8066 14.2421 9.10624 14.5651 7.93048C14.901 6.70305 15.7279 5.13969 16.4773 4.35155C19.6557 0.940575 25.5215 0.811371 28.9713 4.08022C30.2762 5.29473 31.5295 7.40075 32.0722 9.23544C32.2143 9.71349 32.2014 9.85562 31.9042 10.5921C31.3615 11.9487 30.9352 13.5767 30.7672 14.9462C30.4959 17.0523 30.8964 18.8353 31.7104 19.1841C32.3435 19.4554 32.7699 19.2229 33.1962 18.3572C33.558 17.6208 33.558 17.6078 33.558 14.9721C33.558 12.8919 33.5063 12.0521 33.3125 11.0572C33.067 9.80394 33.067 9.79102 33.3125 9.35172C33.4546 9.10624 33.8423 8.58942 34.1782 8.20181C35.7674 6.36712 38.2093 6.17332 39.9923 7.73668C40.5738 8.24057 41.4007 9.59721 41.7495 10.605C42.3826 12.4526 42.5764 15.7344 42.2276 18.5898C41.827 21.8457 40.7417 26.1999 39.7339 28.6289C39.5272 29.1328 39.4626 29.1457 38.752 28.7839C37.4987 28.1508 36.0646 27.0526 34.7854 25.7606C33.2221 24.1585 32.6277 23.7708 31.6329 23.6675C31.0256 23.6029 30.8447 23.6416 30.3279 23.9517C29.346 24.5202 28.9584 25.7606 29.2297 27.4402C29.5915 29.6884 30.8964 31.7169 33.1446 33.5645C34.2299 34.4301 34.6046 34.6627 34.863 34.5593C35.2377 34.4172 35.018 34.1071 33.9198 33.2156C31.3099 31.1354 30.0566 29.1586 29.9145 26.9105C29.7982 25.205 30.2633 24.4298 31.3874 24.3781C32.1884 24.3523 32.9249 24.8432 34.4624 26.4195C35.9095 27.9054 37.5116 29.1069 38.6228 29.5204C38.9329 29.6367 39.1784 29.7917 39.1784 29.8692C39.1784 30.1147 37.8605 32.4662 37.0982 33.5774C34.7984 36.9367 31.607 39.5078 28.4545 40.5415C27.4984 40.8516 27.1624 40.8774 27.1624 40.6319C27.1624 40.2314 26.0771 38.3321 25.5474 37.8023C24.6042 36.8462 23.4672 36.7687 22.9633 37.6085C22.7566 37.9445 22.692 38.3579 22.6403 39.65L22.5757 41.265H21.4258H20.263L18.9063 39.65C15.7408 35.8901 13.7253 34.3526 11.9164 34.3526C9.56491 34.3526 9.21606 36.3423 11.18 38.5646C11.4642 38.8877 11.658 39.1719 11.6192 39.2107C11.5934 39.2494 10.6373 38.836 9.51323 38.3192C6.79996 37.04 5.97305 36.7687 4.93942 36.7687C3.63447 36.7687 2.48456 37.4664 2.29075 38.3838C2.08403 39.314 2.80757 40.1797 4.61642 41.1746C5.24951 41.5234 5.79217 41.8852 5.81801 41.9627C5.84385 42.0531 5.66296 42.1048 5.30119 42.1048C4.08668 42.1177 2.31659 42.6733 1.58013 43.2935C0.76615 43.9783 0.520664 45.1669 1.10208 45.6838C1.58013 46.1231 1.91606 46.2393 2.7042 46.2393C3.72491 46.2393 6.85164 46.5365 11.6451 47.0921C16.038 47.596 15.7925 47.5185 17.4722 48.9526C18.8934 50.1671 20.1079 50.8002 21.8651 51.2654C22.3948 51.4075 23.17 51.64 23.5835 51.7822C24.6042 52.1439 26.1159 52.4153 27.8989 52.5703C29.0488 52.6737 29.5139 52.777 30.0308 53.0354C31.6975 53.8753 33.3513 54.0562 38.5969 53.9399C42.2405 53.8623 44.3465 53.6815 45.6902 53.3326C48.6231 52.5832 51.1168 51.3946 54.489 49.1335C55.8327 48.242 57.1893 47.3892 57.5253 47.2471C58.1713 46.9629 59.4504 46.6528 60.4323 46.5236C61.5693 46.3685 65.6909 46.4331 67.1251 46.614C68.1846 46.7562 68.5592 46.7562 68.6755 46.6399C68.9856 46.3298 68.4559 46.0843 67.0088 45.9163C62.9777 45.4254 59.2824 45.7096 57.1247 46.6657C56.7371 46.8337 55.4451 47.6347 54.2306 48.4616C50.6646 50.8648 48.6231 51.8468 45.7161 52.5703C43.4679 53.113 42.1888 53.2163 37.2661 53.2163C32.4856 53.2163 31.7492 53.1259 30.2762 52.3894C29.1134 51.7951 26.9169 49.8312 25.5861 48.1774C24.1778 46.4202 23.506 44.1075 23.338 40.4252C23.2476 38.4613 23.4026 37.8023 23.9711 37.7377C25.0693 37.6085 26.2968 39.6629 26.9815 42.7896C27.3046 44.2754 28.1831 45.9551 29.023 46.7303C29.9274 47.5572 30.7414 47.8415 32.1368 47.8415C33.8552 47.8415 34.6692 47.5055 41.504 43.9524C46.0649 41.5751 48.9074 40.7482 50.8196 41.265C51.9178 41.5751 52.2796 41.5751 52.3313 41.3038C52.383 41.0324 51.892 40.7611 50.9617 40.5673C48.6361 40.0763 45.9228 40.8774 40.5996 43.6294C34.6046 46.7303 33.9198 47.0146 32.3177 47.105C31.3228 47.1696 31.129 47.1438 30.4959 46.8595C29.5656 46.4331 28.9067 45.7354 28.3769 44.6243C28.0152 43.8878 27.3562 41.7301 27.4596 41.6397C27.4725 41.6268 27.9506 41.4588 28.5191 41.265C32.8862 39.805 36.7752 36.2261 39.243 31.4068C39.5789 30.7478 39.9019 30.1793 39.9665 30.1406C40.0311 30.1018 40.1861 30.1406 40.3154 30.2052C40.8192 30.4765 43.2224 30.8641 45.5223 31.0579C49.5276 31.3939 51.4139 31.8331 52.9515 32.7505C53.9851 33.3707 54.5019 33.9004 54.8895 34.7015C55.1092 35.1795 55.2771 35.3862 55.458 35.3862C55.9877 35.3862 58.7527 34.5852 59.8251 34.133C62.2929 33.0606 64.8253 31.4455 64.8253 30.9287C64.8253 30.4765 64.4377 30.5799 63.4557 31.3034C62.3575 32.1174 60.7554 32.9831 59.2695 33.5774C58.21 34.0038 56.1945 34.611 55.8327 34.611C55.7164 34.611 55.5226 34.3785 55.3934 34.0813C55.0833 33.3965 53.9851 32.4275 52.9644 31.9236C51.1684 31.0579 49.7601 30.7478 46.0908 30.4119C43.5713 30.1923 41.9433 29.9468 40.8709 29.6238C40.3154 29.4687 40.212 29.3912 40.2766 29.2103C41.349 26.5746 42.3826 22.5692 42.8477 19.365C43.8685 12.1684 42.0725 6.93562 38.2869 6.05703C36.4651 5.63066 34.4883 6.50925 33.08 8.3827L32.7311 8.83491L32.5761 8.3827C32.266 7.52995 31.2969 5.73402 30.6509 4.86836C29.4881 3.29208 27.4208 1.85792 25.5345 1.34111C24.4362 1.04394 21.6325 0.966415 20.6377 1.2119ZM32.8603 13.202C32.9766 14.3907 32.9766 15.2046 32.8732 16.3158C32.6665 18.4218 32.2401 19.1195 31.7233 18.1634C31.3745 17.5303 31.4003 14.7783 31.7879 13.2666C31.943 12.6464 32.1626 11.9229 32.266 11.6515C32.5631 10.9409 32.6923 11.2639 32.8603 13.202ZM13.2472 35.3733C14.4488 35.9031 16.8391 38.1124 18.48 40.2185C19.6945 41.7947 21.7617 43.9008 22.7178 44.5726C23.1054 44.831 23.2734 45.0636 23.338 45.3737C23.4543 46.0197 24.2166 47.5055 24.9014 48.4358C25.2502 48.9009 26.103 49.8441 26.8136 50.5418C27.5242 51.2395 28.0798 51.8339 28.041 51.8597C27.9506 51.9631 24.8109 51.4204 23.984 51.162C22.2785 50.6452 22.2785 50.6452 16.6065 43.8491C14.8235 41.7172 12.9759 39.5337 12.4978 39.0039C10.9861 37.3243 10.3918 36.2131 10.6373 35.5542C10.844 34.9857 12.1361 34.8953 13.2472 35.3733ZM6.37358 37.7248C7.12296 37.9703 9.15146 38.9006 12.1361 40.3606L13.1955 40.8774L15.9992 44.2367C17.5368 46.0843 19.2939 48.1645 19.9012 48.8622C20.4955 49.5599 20.9607 50.1671 20.9219 50.2059C20.7927 50.3351 18.8934 49.2239 18.144 48.5779C16.5936 47.26 12.6658 44.7793 8.36332 42.4278C8.00155 42.234 7.22633 41.7947 6.61907 41.4588C6.01181 41.1229 5.14615 40.6448 4.68102 40.3864C3.25978 39.5983 2.79465 38.9781 3.11765 38.2804C3.29854 37.8669 4.20296 37.4535 4.95234 37.4535C5.27535 37.4535 5.92137 37.5698 6.37358 37.7248ZM22.847 42.8284C22.9246 43.2935 22.9375 43.694 22.8858 43.7328C22.7695 43.7974 21.0899 42.2599 21.0899 42.0919C21.0899 42.0273 21.4646 41.9756 21.9038 41.9756H22.7308L22.847 42.8284ZM8.42792 43.3064C9.35819 43.7974 13.7382 46.3427 13.8415 46.4461C14.0354 46.6269 13.3764 46.5882 10.2885 46.2523C8.37624 46.0326 5.71465 45.7613 4.35801 45.645C1.63181 45.4124 1.33465 45.2962 1.50261 44.6114C1.78686 43.5131 3.73783 42.7767 6.36066 42.7767C7.39429 42.7767 7.51058 42.8025 8.42792 43.3064Z"/>
</mask>
<path d="M20.6377 1.2119C20.2113 1.32819 19.604 1.50907 19.281 1.62535C14.255 3.4988 12.1748 9.53261 14.3842 15.8507C15.4824 18.9903 17.5755 21.9491 21.6842 26.2128C28.1056 32.8668 29.1005 34.2363 29.1522 36.5103C29.178 37.5439 29.3331 37.8669 29.6948 37.5698C29.8757 37.4277 29.9015 37.2209 29.8499 36.2907C29.7077 33.797 28.8679 32.66 21.7488 25.2438C17.1362 20.4503 15.0948 17.091 14.423 13.2537C14.1646 11.8066 14.2421 9.10624 14.5651 7.93048C14.901 6.70305 15.7279 5.13969 16.4773 4.35155C19.6557 0.940575 25.5215 0.811371 28.9713 4.08022C30.2762 5.29473 31.5295 7.40075 32.0722 9.23544C32.2143 9.71349 32.2014 9.85562 31.9042 10.5921C31.3615 11.9487 30.9352 13.5767 30.7672 14.9462C30.4959 17.0523 30.8964 18.8353 31.7104 19.1841C32.3435 19.4554 32.7699 19.2229 33.1962 18.3572C33.558 17.6208 33.558 17.6078 33.558 14.9721C33.558 12.8919 33.5063 12.0521 33.3125 11.0572C33.067 9.80394 33.067 9.79102 33.3125 9.35172C33.4546 9.10624 33.8423 8.58942 34.1782 8.20181C35.7674 6.36712 38.2093 6.17332 39.9923 7.73668C40.5738 8.24057 41.4007 9.59721 41.7495 10.605C42.3826 12.4526 42.5764 15.7344 42.2276 18.5898C41.827 21.8457 40.7417 26.1999 39.7339 28.6289C39.5272 29.1328 39.4626 29.1457 38.752 28.7839C37.4987 28.1508 36.0646 27.0526 34.7854 25.7606C33.2221 24.1585 32.6277 23.7708 31.6329 23.6675C31.0256 23.6029 30.8447 23.6416 30.3279 23.9517C29.346 24.5202 28.9584 25.7606 29.2297 27.4402C29.5915 29.6884 30.8964 31.7169 33.1446 33.5645C34.2299 34.4301 34.6046 34.6627 34.863 34.5593C35.2377 34.4172 35.018 34.1071 33.9198 33.2156C31.3099 31.1354 30.0566 29.1586 29.9145 26.9105C29.7982 25.205 30.2633 24.4298 31.3874 24.3781C32.1884 24.3523 32.9249 24.8432 34.4624 26.4195C35.9095 27.9054 37.5116 29.1069 38.6228 29.5204C38.9329 29.6367 39.1784 29.7917 39.1784 29.8692C39.1784 30.1147 37.8605 32.4662 37.0982 33.5774C34.7984 36.9367 31.607 39.5078 28.4545 40.5415C27.4984 40.8516 27.1624 40.8774 27.1624 40.6319C27.1624 40.2314 26.0771 38.3321 25.5474 37.8023C24.6042 36.8462 23.4672 36.7687 22.9633 37.6085C22.7566 37.9445 22.692 38.3579 22.6403 39.65L22.5757 41.265H21.4258H20.263L18.9063 39.65C15.7408 35.8901 13.7253 34.3526 11.9164 34.3526C9.56491 34.3526 9.21606 36.3423 11.18 38.5646C11.4642 38.8877 11.658 39.1719 11.6192 39.2107C11.5934 39.2494 10.6373 38.836 9.51323 38.3192C6.79996 37.04 5.97305 36.7687 4.93942 36.7687C3.63447 36.7687 2.48456 37.4664 2.29075 38.3838C2.08403 39.314 2.80757 40.1797 4.61642 41.1746C5.24951 41.5234 5.79217 41.8852 5.81801 41.9627C5.84385 42.0531 5.66296 42.1048 5.30119 42.1048C4.08668 42.1177 2.31659 42.6733 1.58013 43.2935C0.76615 43.9783 0.520664 45.1669 1.10208 45.6838C1.58013 46.1231 1.91606 46.2393 2.7042 46.2393C3.72491 46.2393 6.85164 46.5365 11.6451 47.0921C16.038 47.596 15.7925 47.5185 17.4722 48.9526C18.8934 50.1671 20.1079 50.8002 21.8651 51.2654C22.3948 51.4075 23.17 51.64 23.5835 51.7822C24.6042 52.1439 26.1159 52.4153 27.8989 52.5703C29.0488 52.6737 29.5139 52.777 30.0308 53.0354C31.6975 53.8753 33.3513 54.0562 38.5969 53.9399C42.2405 53.8623 44.3465 53.6815 45.6902 53.3326C48.6231 52.5832 51.1168 51.3946 54.489 49.1335C55.8327 48.242 57.1893 47.3892 57.5253 47.2471C58.1713 46.9629 59.4504 46.6528 60.4323 46.5236C61.5693 46.3685 65.6909 46.4331 67.1251 46.614C68.1846 46.7562 68.5592 46.7562 68.6755 46.6399C68.9856 46.3298 68.4559 46.0843 67.0088 45.9163C62.9777 45.4254 59.2824 45.7096 57.1247 46.6657C56.7371 46.8337 55.4451 47.6347 54.2306 48.4616C50.6646 50.8648 48.6231 51.8468 45.7161 52.5703C43.4679 53.113 42.1888 53.2163 37.2661 53.2163C32.4856 53.2163 31.7492 53.1259 30.2762 52.3894C29.1134 51.7951 26.9169 49.8312 25.5861 48.1774C24.1778 46.4202 23.506 44.1075 23.338 40.4252C23.2476 38.4613 23.4026 37.8023 23.9711 37.7377C25.0693 37.6085 26.2968 39.6629 26.9815 42.7896C27.3046 44.2754 28.1831 45.9551 29.023 46.7303C29.9274 47.5572 30.7414 47.8415 32.1368 47.8415C33.8552 47.8415 34.6692 47.5055 41.504 43.9524C46.0649 41.5751 48.9074 40.7482 50.8196 41.265C51.9178 41.5751 52.2796 41.5751 52.3313 41.3038C52.383 41.0324 51.892 40.7611 50.9617 40.5673C48.6361 40.0763 45.9228 40.8774 40.5996 43.6294C34.6046 46.7303 33.9198 47.0146 32.3177 47.105C31.3228 47.1696 31.129 47.1438 30.4959 46.8595C29.5656 46.4331 28.9067 45.7354 28.3769 44.6243C28.0152 43.8878 27.3562 41.7301 27.4596 41.6397C27.4725 41.6268 27.9506 41.4588 28.5191 41.265C32.8862 39.805 36.7752 36.2261 39.243 31.4068C39.5789 30.7478 39.9019 30.1793 39.9665 30.1406C40.0311 30.1018 40.1861 30.1406 40.3154 30.2052C40.8192 30.4765 43.2224 30.8641 45.5223 31.0579C49.5276 31.3939 51.4139 31.8331 52.9515 32.7505C53.9851 33.3707 54.5019 33.9004 54.8895 34.7015C55.1092 35.1795 55.2771 35.3862 55.458 35.3862C55.9877 35.3862 58.7527 34.5852 59.8251 34.133C62.2929 33.0606 64.8253 31.4455 64.8253 30.9287C64.8253 30.4765 64.4377 30.5799 63.4557 31.3034C62.3575 32.1174 60.7554 32.9831 59.2695 33.5774C58.21 34.0038 56.1945 34.611 55.8327 34.611C55.7164 34.611 55.5226 34.3785 55.3934 34.0813C55.0833 33.3965 53.9851 32.4275 52.9644 31.9236C51.1684 31.0579 49.7601 30.7478 46.0908 30.4119C43.5713 30.1923 41.9433 29.9468 40.8709 29.6238C40.3154 29.4687 40.212 29.3912 40.2766 29.2103C41.349 26.5746 42.3826 22.5692 42.8477 19.365C43.8685 12.1684 42.0725 6.93562 38.2869 6.05703C36.4651 5.63066 34.4883 6.50925 33.08 8.3827L32.7311 8.83491L32.5761 8.3827C32.266 7.52995 31.2969 5.73402 30.6509 4.86836C29.4881 3.29208 27.4208 1.85792 25.5345 1.34111C24.4362 1.04394 21.6325 0.966415 20.6377 1.2119ZM32.8603 13.202C32.9766 14.3907 32.9766 15.2046 32.8732 16.3158C32.6665 18.4218 32.2401 19.1195 31.7233 18.1634C31.3745 17.5303 31.4003 14.7783 31.7879 13.2666C31.943 12.6464 32.1626 11.9229 32.266 11.6515C32.5631 10.9409 32.6923 11.2639 32.8603 13.202ZM13.2472 35.3733C14.4488 35.9031 16.8391 38.1124 18.48 40.2185C19.6945 41.7947 21.7617 43.9008 22.7178 44.5726C23.1054 44.831 23.2734 45.0636 23.338 45.3737C23.4543 46.0197 24.2166 47.5055 24.9014 48.4358C25.2502 48.9009 26.103 49.8441 26.8136 50.5418C27.5242 51.2395 28.0798 51.8339 28.041 51.8597C27.9506 51.9631 24.8109 51.4204 23.984 51.162C22.2785 50.6452 22.2785 50.6452 16.6065 43.8491C14.8235 41.7172 12.9759 39.5337 12.4978 39.0039C10.9861 37.3243 10.3918 36.2131 10.6373 35.5542C10.844 34.9857 12.1361 34.8953 13.2472 35.3733ZM6.37358 37.7248C7.12296 37.9703 9.15146 38.9006 12.1361 40.3606L13.1955 40.8774L15.9992 44.2367C17.5368 46.0843 19.2939 48.1645 19.9012 48.8622C20.4955 49.5599 20.9607 50.1671 20.9219 50.2059C20.7927 50.3351 18.8934 49.2239 18.144 48.5779C16.5936 47.26 12.6658 44.7793 8.36332 42.4278C8.00155 42.234 7.22633 41.7947 6.61907 41.4588C6.01181 41.1229 5.14615 40.6448 4.68102 40.3864C3.25978 39.5983 2.79465 38.9781 3.11765 38.2804C3.29854 37.8669 4.20296 37.4535 4.95234 37.4535C5.27535 37.4535 5.92137 37.5698 6.37358 37.7248ZM22.847 42.8284C22.9246 43.2935 22.9375 43.694 22.8858 43.7328C22.7695 43.7974 21.0899 42.2599 21.0899 42.0919C21.0899 42.0273 21.4646 41.9756 21.9038 41.9756H22.7308L22.847 42.8284ZM8.42792 43.3064C9.35819 43.7974 13.7382 46.3427 13.8415 46.4461C14.0354 46.6269 13.3764 46.5882 10.2885 46.2523C8.37624 46.0326 5.71465 45.7613 4.35801 45.645C1.63181 45.4124 1.33465 45.2962 1.50261 44.6114C1.78686 43.5131 3.73783 42.7767 6.36066 42.7767C7.39429 42.7767 7.51058 42.8025 8.42792 43.3064Z" fill="#ffc266"/>
<path d="M20.6377 1.2119C20.2113 1.32819 19.604 1.50907 19.281 1.62535C14.255 3.4988 12.1748 9.53261 14.3842 15.8507C15.4824 18.9903 17.5755 21.9491 21.6842 26.2128C28.1056 32.8668 29.1005 34.2363 29.1522 36.5103C29.178 37.5439 29.3331 37.8669 29.6948 37.5698C29.8757 37.4277 29.9015 37.2209 29.8499 36.2907C29.7077 33.797 28.8679 32.66 21.7488 25.2438C17.1362 20.4503 15.0948 17.091 14.423 13.2537C14.1646 11.8066 14.2421 9.10624 14.5651 7.93048C14.901 6.70305 15.7279 5.13969 16.4773 4.35155C19.6557 0.940575 25.5215 0.811371 28.9713 4.08022C30.2762 5.29473 31.5295 7.40075 32.0722 9.23544C32.2143 9.71349 32.2014 9.85562 31.9042 10.5921C31.3615 11.9487 30.9352 13.5767 30.7672 14.9462C30.4959 17.0523 30.8964 18.8353 31.7104 19.1841C32.3435 19.4554 32.7699 19.2229 33.1962 18.3572C33.558 17.6208 33.558 17.6078 33.558 14.9721C33.558 12.8919 33.5063 12.0521 33.3125 11.0572C33.067 9.80394 33.067 9.79102 33.3125 9.35172C33.4546 9.10624 33.8423 8.58942 34.1782 8.20181C35.7674 6.36712 38.2093 6.17332 39.9923 7.73668C40.5738 8.24057 41.4007 9.59721 41.7495 10.605C42.3826 12.4526 42.5764 15.7344 42.2276 18.5898C41.827 21.8457 40.7417 26.1999 39.7339 28.6289C39.5272 29.1328 39.4626 29.1457 38.752 28.7839C37.4987 28.1508 36.0646 27.0526 34.7854 25.7606C33.2221 24.1585 32.6277 23.7708 31.6329 23.6675C31.0256 23.6029 30.8447 23.6416 30.3279 23.9517C29.346 24.5202 28.9584 25.7606 29.2297 27.4402C29.5915 29.6884 30.8964 31.7169 33.1446 33.5645C34.2299 34.4301 34.6046 34.6627 34.863 34.5593C35.2377 34.4172 35.018 34.1071 33.9198 33.2156C31.3099 31.1354 30.0566 29.1586 29.9145 26.9105C29.7982 25.205 30.2633 24.4298 31.3874 24.3781C32.1884 24.3523 32.9249 24.8432 34.4624 26.4195C35.9095 27.9054 37.5116 29.1069 38.6228 29.5204C38.9329 29.6367 39.1784 29.7917 39.1784 29.8692C39.1784 30.1147 37.8605 32.4662 37.0982 33.5774C34.7984 36.9367 31.607 39.5078 28.4545 40.5415C27.4984 40.8516 27.1624 40.8774 27.1624 40.6319C27.1624 40.2314 26.0771 38.3321 25.5474 37.8023C24.6042 36.8462 23.4672 36.7687 22.9633 37.6085C22.7566 37.9445 22.692 38.3579 22.6403 39.65L22.5757 41.265H21.4258H20.263L18.9063 39.65C15.7408 35.8901 13.7253 34.3526 11.9164 34.3526C9.56491 34.3526 9.21606 36.3423 11.18 38.5646C11.4642 38.8877 11.658 39.1719 11.6192 39.2107C11.5934 39.2494 10.6373 38.836 9.51323 38.3192C6.79996 37.04 5.97305 36.7687 4.93942 36.7687C3.63447 36.7687 2.48456 37.4664 2.29075 38.3838C2.08403 39.314 2.80757 40.1797 4.61642 41.1746C5.24951 41.5234 5.79217 41.8852 5.81801 41.9627C5.84385 42.0531 5.66296 42.1048 5.30119 42.1048C4.08668 42.1177 2.31659 42.6733 1.58013 43.2935C0.76615 43.9783 0.520664 45.1669 1.10208 45.6838C1.58013 46.1231 1.91606 46.2393 2.7042 46.2393C3.72491 46.2393 6.85164 46.5365 11.6451 47.0921C16.038 47.596 15.7925 47.5185 17.4722 48.9526C18.8934 50.1671 20.1079 50.8002 21.8651 51.2654C22.3948 51.4075 23.17 51.64 23.5835 51.7822C24.6042 52.1439 26.1159 52.4153 27.8989 52.5703C29.0488 52.6737 29.5139 52.777 30.0308 53.0354C31.6975 53.8753 33.3513 54.0562 38.5969 53.9399C42.2405 53.8623 44.3465 53.6815 45.6902 53.3326C48.6231 52.5832 51.1168 51.3946 54.489 49.1335C55.8327 48.242 57.1893 47.3892 57.5253 47.2471C58.1713 46.9629 59.4504 46.6528 60.4323 46.5236C61.5693 46.3685 65.6909 46.4331 67.1251 46.614C68.1846 46.7562 68.5592 46.7562 68.6755 46.6399C68.9856 46.3298 68.4559 46.0843 67.0088 45.9163C62.9777 45.4254 59.2824 45.7096 57.1247 46.6657C56.7371 46.8337 55.4451 47.6347 54.2306 48.4616C50.6646 50.8648 48.6231 51.8468 45.7161 52.5703C43.4679 53.113 42.1888 53.2163 37.2661 53.2163C32.4856 53.2163 31.7492 53.1259 30.2762 52.3894C29.1134 51.7951 26.9169 49.8312 25.5861 48.1774C24.1778 46.4202 23.506 44.1075 23.338 40.4252C23.2476 38.4613 23.4026 37.8023 23.9711 37.7377C25.0693 37.6085 26.2968 39.6629 26.9815 42.7896C27.3046 44.2754 28.1831 45.9551 29.023 46.7303C29.9274 47.5572 30.7414 47.8415 32.1368 47.8415C33.8552 47.8415 34.6692 47.5055 41.504 43.9524C46.0649 41.5751 48.9074 40.7482 50.8196 41.265C51.9178 41.5751 52.2796 41.5751 52.3313 41.3038C52.383 41.0324 51.892 40.7611 50.9617 40.5673C48.6361 40.0763 45.9228 40.8774 40.5996 43.6294C34.6046 46.7303 33.9198 47.0146 32.3177 47.105C31.3228 47.1696 31.129 47.1438 30.4959 46.8595C29.5656 46.4331 28.9067 45.7354 28.3769 44.6243C28.0152 43.8878 27.3562 41.7301 27.4596 41.6397C27.4725 41.6268 27.9506 41.4588 28.5191 41.265C32.8862 39.805 36.7752 36.2261 39.243 31.4068C39.5789 30.7478 39.9019 30.1793 39.9665 30.1406C40.0311 30.1018 40.1861 30.1406 40.3154 30.2052C40.8192 30.4765 43.2224 30.8641 45.5223 31.0579C49.5276 31.3939 51.4139 31.8331 52.9515 32.7505C53.9851 33.3707 54.5019 33.9004 54.8895 34.7015C55.1092 35.1795 55.2771 35.3862 55.458 35.3862C55.9877 35.3862 58.7527 34.5852 59.8251 34.133C62.2929 33.0606 64.8253 31.4455 64.8253 30.9287C64.8253 30.4765 64.4377 30.5799 63.4557 31.3034C62.3575 32.1174 60.7554 32.9831 59.2695 33.5774C58.21 34.0038 56.1945 34.611 55.8327 34.611C55.7164 34.611 55.5226 34.3785 55.3934 34.0813C55.0833 33.3965 53.9851 32.4275 52.9644 31.9236C51.1684 31.0579 49.7601 30.7478 46.0908 30.4119C43.5713 30.1923 41.9433 29.9468 40.8709 29.6238C40.3154 29.4687 40.212 29.3912 40.2766 29.2103C41.349 26.5746 42.3826 22.5692 42.8477 19.365C43.8685 12.1684 42.0725 6.93562 38.2869 6.05703C36.4651 5.63066 34.4883 6.50925 33.08 8.3827L32.7311 8.83491L32.5761 8.3827C32.266 7.52995 31.2969 5.73402 30.6509 4.86836C29.4881 3.29208 27.4208 1.85792 25.5345 1.34111C24.4362 1.04394 21.6325 0.966415 20.6377 1.2119ZM32.8603 13.202C32.9766 14.3907 32.9766 15.2046 32.8732 16.3158C32.6665 18.4218 32.2401 19.1195 31.7233 18.1634C31.3745 17.5303 31.4003 14.7783 31.7879 13.2666C31.943 12.6464 32.1626 11.9229 32.266 11.6515C32.5631 10.9409 32.6923 11.2639 32.8603 13.202ZM13.2472 35.3733C14.4488 35.9031 16.8391 38.1124 18.48 40.2185C19.6945 41.7947 21.7617 43.9008 22.7178 44.5726C23.1054 44.831 23.2734 45.0636 23.338 45.3737C23.4543 46.0197 24.2166 47.5055 24.9014 48.4358C25.2502 48.9009 26.103 49.8441 26.8136 50.5418C27.5242 51.2395 28.0798 51.8339 28.041 51.8597C27.9506 51.9631 24.8109 51.4204 23.984 51.162C22.2785 50.6452 22.2785 50.6452 16.6065 43.8491C14.8235 41.7172 12.9759 39.5337 12.4978 39.0039C10.9861 37.3243 10.3918 36.2131 10.6373 35.5542C10.844 34.9857 12.1361 34.8953 13.2472 35.3733ZM6.37358 37.7248C7.12296 37.9703 9.15146 38.9006 12.1361 40.3606L13.1955 40.8774L15.9992 44.2367C17.5368 46.0843 19.2939 48.1645 19.9012 48.8622C20.4955 49.5599 20.9607 50.1671 20.9219 50.2059C20.7927 50.3351 18.8934 49.2239 18.144 48.5779C16.5936 47.26 12.6658 44.7793 8.36332 42.4278C8.00155 42.234 7.22633 41.7947 6.61907 41.4588C6.01181 41.1229 5.14615 40.6448 4.68102 40.3864C3.25978 39.5983 2.79465 38.9781 3.11765 38.2804C3.29854 37.8669 4.20296 37.4535 4.95234 37.4535C5.27535 37.4535 5.92137 37.5698 6.37358 37.7248ZM22.847 42.8284C22.9246 43.2935 22.9375 43.694 22.8858 43.7328C22.7695 43.7974 21.0899 42.2599 21.0899 42.0919C21.0899 42.0273 21.4646 41.9756 21.9038 41.9756H22.7308L22.847 42.8284ZM8.42792 43.3064C9.35819 43.7974 13.7382 46.3427 13.8415 46.4461C14.0354 46.6269 13.3764 46.5882 10.2885 46.2523C8.37624 46.0326 5.71465 45.7613 4.35801 45.645C1.63181 45.4124 1.33465 45.2962 1.50261 44.6114C1.78686 43.5131 3.73783 42.7767 6.36066 42.7767C7.39429 42.7767 7.51058 42.8025 8.42792 43.3064Z" stroke="#ffc266" stroke-width="2.5" mask="url"/>
</svg>
