<svg width="48" height="49" viewBox="0 0 48 49" fill="none" xmlns="http://www.w3.org/2000/svg">
<path fill-rule="evenodd" clip-rule="evenodd" d="M23.2515 18.9399C23.7247 19.3195 24 19.8933 24 20.5V44.5C24 45.6046 23.1046 46.5 22 46.5H4C2.89543 46.5 2 45.6046 2 44.5V24.5C2 23.5626 2.65106 22.751 3.56614 22.5476L21.5661 18.5476C22.1583 18.416 22.7782 18.5603 23.2515 18.9399ZM6 26.1043V42.5H20V22.9932L6 26.1043Z" fill="currentColor"/>
<path fill-rule="evenodd" clip-rule="evenodd" d="M45.2815 2.96448C45.7368 3.34448 46 3.90694 46 4.49999V44.5C46 45.6046 45.1046 46.5 44 46.5H22C20.8954 46.5 20 45.6046 20 44.5V8.49999C20 7.53341 20.6912 6.70515 21.6422 6.53225L43.6422 2.53225C44.2257 2.42616 44.8262 2.58449 45.2815 2.96448ZM24 10.1691V42.5H42V6.89641L24 10.1691Z" fill="currentColor"/>
<path fill-rule="evenodd" clip-rule="evenodd" d="M27 15.5V12.5H31V15.5H27Z" fill="currentColor"/>
<path fill-rule="evenodd" clip-rule="evenodd" d="M27 24.5V21.5H31V24.5H27Z" fill="currentColor"/>
<path fill-rule="evenodd" clip-rule="evenodd" d="M27 33.5V30.5H31V33.5H27Z" fill="currentColor"/>
<path fill-rule="evenodd" clip-rule="evenodd" d="M8 31.5V28.5H12V31.5H8Z" fill="currentColor"/>
<path fill-rule="evenodd" clip-rule="evenodd" d="M8 39.5V36.5H12V39.5H8Z" fill="currentColor"/>
<path fill-rule="evenodd" clip-rule="evenodd" d="M35 15.5V12.5H39V15.5H35Z" fill="currentColor"/>
<path fill-rule="evenodd" clip-rule="evenodd" d="M35 24.5V21.5H39V24.5H35Z" fill="currentColor"/>
<path fill-rule="evenodd" clip-rule="evenodd" d="M35 33.5V30.5H39V33.5H35Z" fill="currentColor"/>
<path fill-rule="evenodd" clip-rule="evenodd" d="M14 31.5V28.5H18V31.5H14Z" fill="currentColor"/>
<path fill-rule="evenodd" clip-rule="evenodd" d="M14 39.5V36.5H18V39.5H14Z" fill="currentColor"/>
</svg>
