<svg width="48" height="48" viewBox="0 0 48 48" fill="none" xmlns="http://www.w3.org/2000/svg">
<path fill-rule="evenodd" clip-rule="evenodd" d="M39.0631 10.8736C35.3008 7.22426 29.2823 7.04797 25.3048 10.3606C24.9259 10.6762 24.4615 10.8294 24 10.8236C23.5384 10.8294 23.0741 10.6762 22.6951 10.3606C18.7177 7.04797 12.6992 7.22426 8.93688 10.8736C5.203 14.4954 5.03224 20.2356 8.40866 24.05C8.45827 24.106 8.50417 24.1641 8.54639 24.2239L24 39.2137L39.4536 24.2239C39.4958 24.1641 39.5417 24.106 39.5913 24.05C42.9677 20.2356 42.797 14.4954 39.0631 10.8736ZM42.8463 26.3991C47.3634 20.9917 47.0257 13.0246 41.8481 8.00244C36.985 3.28526 29.4766 2.74018 24 6.35463C18.5234 2.74018 11.015 3.28526 6.15187 8.00244C0.974291 13.0246 0.636542 20.9917 5.15369 26.3991C5.24543 26.5581 5.35943 26.7052 5.49364 26.8354L22.6075 43.4356C23.3833 44.1881 24.6167 44.1881 25.3925 43.4356L42.5063 26.8354C42.6405 26.7052 42.7545 26.5581 42.8463 26.3991Z" fill="currentColor"/>
<path fill-rule="evenodd" clip-rule="evenodd" d="M36 18C36 15.7909 34.2091 14 32 14V10C36.4183 10 40 13.5817 40 18H36Z" fill="currentColor"/>
</svg>
